<svg width="180" height="270" fill="none" xmlns="http://www.w3.org/2000/svg"><path d="M107.5 102.5c0 19.368-6.014 36.884-15.713 49.547C82.087 164.71 68.723 172.5 54 172.5c-14.724 0-28.088-7.79-37.787-20.453C6.513 139.384.5 121.868.5 102.5s6.014-36.884 15.713-49.547C25.913 40.29 39.276 32.5 54 32.5s28.088 7.79 37.787 20.453c9.699 12.663 15.713 30.18 15.713 49.547Z" fill="#C45454" stroke="#000"/><path d="M179.5 70.5c0 19.368-6.014 36.884-15.713 49.547C154.088 132.71 140.724 140.5 126 140.5s-28.088-7.79-37.787-20.453C78.513 107.384 72.5 89.867 72.5 70.5c0-19.368 6.014-36.884 15.713-49.547C97.913 8.29 111.276.5 126 .5s28.088 7.79 37.787 20.453C173.486 33.616 179.5 51.133 179.5 70.5Z" fill="#C45454" stroke="#000"/><path stroke="#000" d="m54.406 172.708 54 75M134.486 141.118l-26 107M108.488 247.889l5 22"/><path d="M9.08 101.456c-.16 0-.24-.128-.24-.384 0-.224.08-.496.24-.816.16-.32.368-.576.624-.768.256-.16.528-.336.816-.528.256-.16.512-.304.768-.432-.032-.064-.048-.176-.048-.336 0-.256.08-.384.24-.384.096 0 .24.112.432.336 2.496-1.376 4.928-2.384 7.296-3.024v-.144c0-.896-.24-1.728-.72-2.496a15.158 15.158 0 0 0-1.728-2.352c-.704-.8-1.424-1.68-2.16-2.64a19.933 19.933 0 0 1-1.92-3.264c-.544-1.248-.896-2.704-1.056-4.368a3.498 3.498 0 0 1-.048-.576v-.576c0-2.048.464-3.904 1.392-5.568a14.48 14.48 0 0 1 3.6-4.272 18.14 18.14 0 0 1 4.848-2.832c1.376-.544 2.944-.816 4.704-.816.64 0 1.248.048 1.824.144 1.696.32 2.88.88 3.552 1.68.672.8 1.008 1.6 1.008 2.4 0 .608-.16 1.152-.48 1.632-.32.48-.544.72-.672.72-.096 0-.144-.064-.144-.192 0-.064.016-.16.048-.288.064-.16.112-.32.144-.48.096-.256.16-.48.192-.672.032-.192.048-.384.048-.576 0-1.024-.48-1.776-1.44-2.256a6.065 6.065 0 0 0-2.976-.768h-.432c-.16 0-.32.016-.48.048-2.016.288-3.92 1.024-5.712 2.208-1.792 1.184-3.312 2.736-4.56 4.656-1.216 1.888-2.016 4.064-2.4 6.528l-.096.672v.624c0 1.504.32 2.88.96 4.128a20.291 20.291 0 0 0 2.256 3.408c.896 1.056 1.744 2.08 2.544 3.072.8.96 1.344 1.92 1.632 2.88.64-.128 1.264-.208 1.872-.24.608-.032 1.2-.032 1.776 0 .448.064.672.192.672.384s-.32.288-.96.288c-.448 0-.944.032-1.488.096a8.85 8.85 0 0 0-1.728.288.906.906 0 0 1 .048.288v.24c0 .32-.048.656-.144 1.008-.416 1.28-1.168 2.224-2.256 2.832-1.088.608-2.192.912-3.312.912-1.088 0-2-.224-2.736-.672a2.774 2.774 0 0 1-.72-.528c-.416.224-.832.48-1.248.768-.448.288-.88.576-1.296.864-.128.096-.24.144-.336.144Zm5.904-1.44c.928 0 1.84-.304 2.736-.912.896-.576 1.392-1.552 1.488-2.928-2.112.736-4.288 1.76-6.528 3.072.512.512 1.28.768 2.304.768Zm13.346 5.664c-.32 0-.656-.208-1.008-.624-.32-.384-.624-.928-.912-1.632a15.376 15.376 0 0 1-1.008-3.648 24.902 24.902 0 0 1-.288-3.792c0-1.408.096-2.784.288-4.128.192-1.344.4-2.56.624-3.648.16-.768.352-1.584.576-2.448.224-.864.432-1.552.624-2.064-.192.032-.496.144-.912.336-.416.192-.848.384-1.296.576-.416.192-.784.288-1.104.288-.48 0-.72-.272-.72-.816 0-.288.096-.544.288-.768.224-.224.496-.4.816-.528a8.551 8.551 0 0 1 2.112-.624c.768-.16 1.28-.32 1.536-.48l1.248-3.168c.128-.32.352-.832.672-1.536.352-.736.752-1.52 1.2-2.352.48-.832.944-1.584 1.392-2.256.352-.512.688-.912 1.008-1.2.32-.32.672-.48 1.056-.48.576 0 .864.224.864.672 0 .256-.112.64-.336 1.152-.192.512-.56 1.184-1.104 2.016-.608.96-1.232 1.92-1.872 2.88a19.852 19.852 0 0 0-1.584 2.928 4.442 4.442 0 0 1-.24.624c-.096.256-.176.416-.24.48l.96-.144c.256-.032.544-.048.864-.048.32-.032.672-.048 1.056-.048.544 0 1.056.032 1.536.096.512.032.928.112 1.248.24.16.064.304.144.432.24.16.064.24.128.24.192 0 .128-.416.192-1.248.192-.48 0-1.168.08-2.064.24-.864.16-1.856.416-2.976.768-.544.16-.912.384-1.104.672-.192.288-.448.976-.768 2.064a55.265 55.265 0 0 0-1.152 4.992 57.754 57.754 0 0 0-.672 4.8c-.032.32-.064.656-.096 1.008v1.152c0 1.088.096 2.224.288 3.408.224 1.184.544 2.208.96 3.072.096.192.192.368.288.528.128.16.272.272.432.336.224.096.336.208.336.336 0 .096-.08.144-.24.144Zm8.159-7.056c-1.152 0-2.16-.672-3.024-2.016-.832-1.376-1.248-3.536-1.248-6.48 0-1.92.24-3.456.72-4.608.48-1.184 1.072-2.048 1.776-2.592s1.376-.816 2.016-.816c.64 0 1.184.224 1.632.672.448.416.672 1.024.672 1.824 0 .768-.224 1.584-.672 2.448-.448.832-.992 1.6-1.632 2.304-.608.672-1.216 1.12-1.824 1.344a1.069 1.069 0 0 1-.48.096c-.128 0-.192-.048-.192-.144 0-.256.256-.544.768-.864.64-.448 1.248-1.12 1.824-2.016.576-.928.864-1.744.864-2.448 0-.416-.096-.736-.288-.96-.192-.256-.416-.384-.672-.384-.48 0-1.008.384-1.584 1.152-.544.736-.944 2.016-1.2 3.84-.064.512-.128 1.008-.192 1.488-.032.448-.048.896-.048 1.344 0 1.792.272 3.2.816 4.224.544.992 1.264 1.488 2.16 1.488.768 0 1.632-.448 2.592-1.344.96-.928 1.904-2.368 2.832-4.32.224-.512.48-.768.768-.768.192 0 .288.128.288.384 0 .224-.064.464-.192.72-.832 2.048-1.84 3.632-3.024 4.752-1.184 1.12-2.336 1.68-3.456 1.68Zm5.34 15.024c-.48 0-.865-.32-1.153-.96-.288-.608-.496-1.344-.624-2.208a13.24 13.24 0 0 1-.24-2.4c0-.352.016-.864.048-1.536s.08-1.392.144-2.16c.064-.768.128-1.488.192-2.16l.144-1.536c.288-2.176.72-4.272 1.296-6.288.576-2.048 1.2-4.048 1.872-6 .032-.064.064-.16.096-.288.064-.128.112-.192.144-.192v-.144c-.32.128-.736.432-1.248.912-.48.48-.832.848-1.056 1.104a6.712 6.712 0 0 0-.624.72c-.192.224-.416.336-.672.336-.256 0-.384-.144-.384-.432 0-.352.192-.704.576-1.056a7.66 7.66 0 0 1 1.2-1.056c.448-.352.928-.672 1.44-.96a46.76 46.76 0 0 0 1.152-.624.463.463 0 0 0 .192-.24c.064-.096.112-.192.144-.288.224-.352.448-.688.672-1.008.256-.32.592-.544 1.008-.672.288.032.608.096.96.192s.56.32.624.672c0 .128.032.192.096.192v.048c.16 0 .352-.016.576-.048.256-.064.544-.096.864-.096 1.248 0 2.256.32 3.024.96.768.64 1.152 1.488 1.152 2.544 0 .992-.288 2.064-.864 3.216-.576 1.12-1.2 2.032-1.872 2.736a22.815 22.815 0 0 1-3.36 2.784c-1.152.768-2.144 1.152-2.976 1.152-.512 0-.864-.144-1.056-.432-.16-.256-.24-.576-.24-.96 0-.544.24-1.088.72-1.632.48-.544.96-1.008 1.44-1.392a20.734 20.734 0 0 1 1.68-1.248c.608-.384 1.12-.704 1.536-.96.224-.16.432-.304.624-.432.224-.128.416-.192.576-.192.096 0 .144.048.144.144 0 .064-.192.224-.576.48-.352.256-.656.48-.912.672-.192.16-.528.448-1.008.864-.48.384-.992.832-1.536 1.344-.512.48-.96.976-1.344 1.488-.384.512-.576.96-.576 1.344.512 0 1.072-.208 1.68-.624.64-.448 1.264-.96 1.872-1.536a92.416 92.416 0 0 1 1.632-1.44c.416-.384.912-.912 1.488-1.584a14.67 14.67 0 0 0 1.536-2.16c.448-.768.672-1.472.672-2.112 0-.832-.32-1.44-.96-1.824-.608-.416-1.344-.624-2.208-.624a8.11 8.11 0 0 0-1.104.096c-.448.064-.72.128-.816.192a70.29 70.29 0 0 0-2.016 3.312 43.922 43.922 0 0 0-1.776 3.456 36.915 36.915 0 0 0-2.16 5.856c-.512 1.984-.848 4.128-1.008 6.432-.032.544-.08 1.12-.144 1.728a17.34 17.34 0 0 0 0 1.824c.032.32.096.832.192 1.536a8.43 8.43 0 0 0 .48 1.92c.224.576.528.864.912.864h.192c.096 0 .144.016.144.048v.144c-.224.128-.432.192-.624.192ZM59.25 106.4c-.736 0-1.296-.304-1.68-.912-.352-.608-.528-1.312-.528-2.112 0-.96.176-2.064.528-3.312a41.663 41.663 0 0 1 1.392-3.744 84.142 84.142 0 0 1 1.68-3.792 135.843 135.843 0 0 0 1.584-3.264c.48-.96.8-1.696.96-2.208.192-.576.288-1.008.288-1.296 0-.32-.112-.48-.336-.48-.256 0-.64.208-1.152.624-.48.384-.96.816-1.44 1.296-.448.48-.768.832-.96 1.056a24.58 24.58 0 0 0-2.784 3.84c-.8 1.408-1.296 2.608-1.488 3.6-.032.16-.096.448-.192.864-.064.416-.208.608-.432.576-.32-.064-.544-.256-.672-.576a6.352 6.352 0 0 1-.192-.96c0-.16-.016-.32-.048-.48v-.576c0-1.568.176-3.344.528-5.328a77.87 77.87 0 0 1 1.344-6.096 83.78 83.78 0 0 1 1.824-5.808c.64-1.792 1.248-3.28 1.824-4.464.288-.576.608-1.12.96-1.632.352-.544.704-.816 1.056-.816.224 0 .416.112.576.336.192.224.288.416.288.576 0 .128-.224.64-.672 1.536-.416.864-.96 2.016-1.632 3.456a69.12 69.12 0 0 0-2.064 4.848 63.222 63.222 0 0 0-1.824 5.856 38.606 38.606 0 0 0-1.104 6.336c0 .032-.016.192-.048.48l-.096.864v.432-.048h.048c.064-.384.176-.752.336-1.104.192-.352.384-.688.576-1.008.96-1.92 2.192-3.76 3.696-5.52a16.075 16.075 0 0 1 2.304-2.16c.8-.64 1.632-.96 2.496-.96.352 0 .656.096.912.288.256.192.384.56.384 1.104 0 .704-.24 1.536-.72 2.496a25.905 25.905 0 0 1-1.68 2.928 122.72 122.72 0 0 0-1.776 2.832 35.67 35.67 0 0 0-2.016 3.984 11.078 11.078 0 0 0-.768 5.76c.096.512.24.944.432 1.296.224.384.528.576.912.576.256 0 .496-.08.72-.24.256-.128.464-.256.624-.384.288-.288.48-.432.576-.432.096 0 .144.048.144.144 0 .192-.08.368-.24.528a1.95 1.95 0 0 1-.48.432c-.224.192-.528.368-.912.528-.352.16-.704.24-1.056.24Zm10.098-7.776c-1.152 0-2.16-.672-3.024-2.016-.832-1.376-1.248-3.536-1.248-6.48 0-1.92.24-3.456.72-4.608.48-1.184 1.072-2.048 1.776-2.592s1.376-.816 2.016-.816c.64 0 1.184.224 1.632.672.448.416.672 1.024.672 1.824 0 .768-.224 1.584-.672 2.448-.448.832-.992 1.6-1.632 2.304-.608.672-1.216 1.12-1.824 1.344a1.069 1.069 0 0 1-.48.096c-.128 0-.192-.048-.192-.144 0-.256.256-.544.768-.864.64-.448 1.248-1.12 1.824-2.016.576-.928.864-1.744.864-2.448 0-.416-.096-.736-.288-.96-.192-.256-.416-.384-.672-.384-.48 0-1.008.384-1.584 1.152-.544.736-.944 2.016-1.2 3.84-.064.512-.128 1.008-.192 1.488-.032.448-.048.896-.048 1.344 0 1.792.272 3.2.816 4.224.544.992 1.264 1.488 2.16 1.488.768 0 1.632-.448 2.592-1.344.96-.928 1.904-2.368 2.832-4.32.224-.512.48-.768.768-.768.192 0 .288.128.288.384 0 .224-.064.464-.192.72-.832 2.048-1.84 3.632-3.024 4.752-1.184 1.12-2.336 1.68-3.456 1.68Zm15.42 0c-.416 0-.784-.256-1.104-.768-.32-.544-.48-1.568-.48-3.072 0-1.184.096-2.48.288-3.888.192-1.44.4-2.864.624-4.272.256-1.408.48-2.656.672-3.744.192-1.12.288-1.936.288-2.448 0-.896-.272-1.344-.816-1.344-.512 0-1.04.256-1.584.768a11.596 11.596 0 0 0-1.488 1.872 29.761 29.761 0 0 0-1.2 2.16c-.32.672-.528 1.168-.624 1.488a20.125 20.125 0 0 0-.96 3.744 24.29 24.29 0 0 0-.288 3.792c0 .544.016 1.104.048 1.68.064.576.112 1.168.144 1.776.064.32-.032.72-.288 1.2-.224.448-.496.672-.816.672-.224 0-.416-.144-.576-.432a3.743 3.743 0 0 1-.336-.768 7.296 7.296 0 0 1-.288-1.2 21.468 21.468 0 0 0-.192-1.152c-.224-1.312-.432-2.64-.624-3.984a31.35 31.35 0 0 0-.816-3.984 9.12 9.12 0 0 0-.384-1.104 2.166 2.166 0 0 0-.624-1.008 1.12 1.12 0 0 0-.288-.192c-.128-.096-.192-.176-.192-.24 0-.128.176-.192.528-.192.384 0 .768.192 1.152.576.384.384.736.896 1.056 1.536.384.8.704 1.648.96 2.544.288.896.512 1.616.672 2.16.192-1.152.4-2.176.624-3.072.224-.768.528-1.68.912-2.736a20.093 20.093 0 0 1 1.44-3.168c.576-1.056 1.264-1.92 2.064-2.592a4.086 4.086 0 0 1 2.784-1.056c1.536 0 2.304.896 2.304 2.688 0 .928-.16 1.952-.48 3.072a30.212 30.212 0 0 1-1.056 3.024c-.352.928-.592 1.568-.72 1.92-.16.448-.336 1.056-.528 1.824-.16.768-.304 1.568-.432 2.4-.096.832-.144 1.6-.144 2.304 0 .608.064 1.12.192 1.536.16.384.4.576.72.576.32 0 .608-.144.864-.432.256-.32.464-.608.624-.864.192-.256.288-.304.288-.144.064.48-.112 1.024-.528 1.632-.384.608-.848.912-1.392.912Zm50.335 9.6c-1.664 0-3.232-.464-4.704-1.392-1.472-.928-2.832-2.144-4.08-3.648a33.133 33.133 0 0 1-3.312-4.848 64.295 64.295 0 0 1-2.544-5.184 85.768 85.768 0 0 1-1.728-4.464l-.048-.144a74.255 74.255 0 0 1-1.344 4.032 66.627 66.627 0 0 1-1.152 2.88 21.283 21.283 0 0 1-3.12 5.184c-1.248 1.568-2.608 2.8-4.08 3.696-1.472.928-2.944 1.392-4.416 1.392-1.44 0-2.816-.544-4.128-1.632-1.28-1.056-2.384-2.816-3.312-5.28a10.14 10.14 0 0 1-.528-2.16 13.143 13.143 0 0 1-.192-2.256c0-1.376.16-2.736.48-4.08.288-1.344.688-2.56 1.2-3.648.352-.832.848-1.712 1.488-2.64.672-.928 1.312-1.68 1.92-2.256.16-.16.384-.336.672-.528.32-.192.528-.288.624-.288.032 0 .048.016.048.048 0 .096-.272.432-.816 1.008-1.408 1.44-2.432 3.168-3.072 5.184a20.04 20.04 0 0 0-.96 6.096c0 2.304.336 4.368 1.008 6.192.736 2.048 1.584 3.488 2.544 4.32.96.832 1.984 1.248 3.072 1.248 1.024 0 2.048-.32 3.072-.96 1.024-.608 1.984-1.408 2.88-2.4.736-.8 1.488-1.936 2.256-3.408.8-1.44 1.568-3.088 2.304-4.944a59.874 59.874 0 0 0 2.064-5.856 61.488 61.488 0 0 0 1.824-7.44c.48-2.528.72-4.816.72-6.864 0-1.408-.128-2.656-.384-3.744s-.656-1.968-1.2-2.64c-.32-.352-.672-.528-1.056-.528s-.768.16-1.152.48c-.576.416-1.104 1.072-1.584 1.968a20.53 20.53 0 0 0-1.2 3.024 24.695 24.695 0 0 0-.816 3.456 20.766 20.766 0 0 0-.288 3.312c0 .736.064 1.408.192 2.016.128.608.304 1.088.528 1.44.288.416.592.624.912.624.128 0 .24-.016.336-.048.128-.032.224-.048.288-.048.16 0 .24.048.24.144 0 .096-.128.192-.384.288-.224.096-.512.144-.864.144-.256 0-.512-.048-.768-.144-.704-.288-1.216-.832-1.536-1.632-.288-.832-.432-1.792-.432-2.88 0-1.28.176-2.64.528-4.08.384-1.44.896-2.8 1.536-4.08.64-1.28 1.36-2.32 2.16-3.12.8-.832 1.632-1.248 2.496-1.248.608 0 1.216.256 1.824.768.832.704 1.424 1.696 1.776 2.976.352 1.248.528 2.656.528 4.224 0 1.856-.208 3.872-.624 6.048a70.243 70.243 0 0 1-1.392 6.192 30.321 30.321 0 0 1 4.608-6.336c1.824-1.92 3.824-3.44 6-4.56 2.208-1.152 4.512-1.728 6.912-1.728.64 0 1.296.048 1.968.144.704.096 1.392.256 2.064.48.32.096.48.336.48.72 0 .288-.096.544-.288.768-.16.224-.384.288-.672.192a12.016 12.016 0 0 0-3.408-.48c-1.76 0-3.504.352-5.232 1.056a20.549 20.549 0 0 0-4.944 2.784 26.708 26.708 0 0 0-4.32 3.984 24.715 24.715 0 0 0-3.216 4.656l-.048.144.192.432c.416.928.992 2 1.728 3.216a75.966 75.966 0 0 0 2.496 3.744 91.09 91.09 0 0 0 2.928 3.792 45.927 45.927 0 0 0 2.928 3.36c.96.992 1.824 1.76 2.592 2.304.576.416 1.248.832 2.016 1.248.8.448 1.584.672 2.352.672 1.056 0 1.76-.432 2.112-1.296a6.442 6.442 0 0 0 .576-2.64c0-1.024-.16-2.032-.48-3.024a10.37 10.37 0 0 0-1.344-2.736c-.096-.16-.144-.256-.144-.288 0-.096.048-.144.144-.144.16 0 .352.112.576.336a9.208 9.208 0 0 1 1.536 2.688 8.696 8.696 0 0 1 .576 3.072c0 1.568-.448 2.88-1.344 3.936-.896 1.088-2.112 1.632-3.648 1.632Zm-.674-26.256c-.288 0-.496-.144-.624-.432-.096-.32-.144-.544-.144-.672 0-.512.144-.992.432-1.44.32-.48.672-.736 1.056-.768h.144c.384 0 .64.096.768.288.16.16.24.368.24.624 0 .48-.208 1.008-.624 1.584-.416.544-.832.816-1.248.816Zm-2.448 17.184c-1.088 0-1.824-.416-2.208-1.248-.384-.832-.576-1.792-.576-2.88 0-1.088.112-2.224.336-3.408.256-1.216.528-2.32.816-3.312.32-.992.56-1.696.72-2.112.352-.736.704-1.36 1.056-1.872.352-.544.736-.816 1.152-.816.288 0 .496.112.624.336.16.192.24.448.24.768 0 .64-.176 1.296-.528 1.968a40.868 40.868 0 0 0-2.496 5.328c-.352 1.024-.528 2.304-.528 3.84 0 .992.096 1.712.288 2.16.224.448.528.672.912.672.512 0 1.104-.288 1.776-.864.672-.608 1.36-1.408 2.064-2.4a21.136 21.136 0 0 0 1.872-3.216c.352-.736.624-1.104.816-1.104.128 0 .192.128.192.384 0 .352-.144.864-.432 1.536-.256.64-.576 1.296-.96 1.968-.352.672-.688 1.2-1.008 1.584a10.367 10.367 0 0 1-1.872 1.872c-.704.544-1.456.816-2.256.816Zm15.459-.528c-.416 0-.784-.256-1.104-.768-.32-.544-.48-1.568-.48-3.072 0-1.184.096-2.48.288-3.888.192-1.44.4-2.864.624-4.272.256-1.408.48-2.656.672-3.744.192-1.12.288-1.936.288-2.448 0-.896-.272-1.344-.816-1.344-.512 0-1.04.256-1.584.768a11.596 11.596 0 0 0-1.488 1.872 29.761 29.761 0 0 0-1.2 2.16c-.32.672-.528 1.168-.624 1.488a20.125 20.125 0 0 0-.96 3.744 24.29 24.29 0 0 0-.288 3.792c0 .544.016 1.104.048 1.68.064.576.112 1.168.144 1.776.064.32-.032.72-.288 1.2-.224.448-.496.672-.816.672-.224 0-.416-.144-.576-.432a3.743 3.743 0 0 1-.336-.768 7.296 7.296 0 0 1-.288-1.2 21.468 21.468 0 0 0-.192-1.152c-.224-1.312-.432-2.64-.624-3.984a31.35 31.35 0 0 0-.816-3.984 9.12 9.12 0 0 0-.384-1.104 2.166 2.166 0 0 0-.624-1.008 1.117 1.117 0 0 0-.288-.192c-.128-.096-.192-.176-.192-.24 0-.128.176-.192.528-.192.384 0 .768.192 1.152.576.384.384.736.896 1.056 1.536.384.8.704 1.648.96 2.544.288.896.512 1.616.672 2.16.192-1.152.4-2.176.624-3.072.224-.768.528-1.68.912-2.736a20.093 20.093 0 0 1 1.44-3.168c.576-1.056 1.264-1.92 2.064-2.592a4.086 4.086 0 0 1 2.784-1.056c1.536 0 2.304.896 2.304 2.688 0 .928-.16 1.952-.48 3.072a30.212 30.212 0 0 1-1.056 3.024c-.352.928-.592 1.568-.72 1.92-.16.448-.336 1.056-.528 1.824-.16.768-.304 1.568-.432 2.4-.096.832-.144 1.6-.144 2.304 0 .608.064 1.12.192 1.536.16.384.4.576.72.576.32 0 .608-.144.864-.432.256-.32.464-.608.624-.864.192-.256.288-.304.288-.144.064.48-.112 1.024-.528 1.632-.384.608-.848.912-1.392.912Zm3.846 18.432c-1.28 0-2.368-.384-3.264-1.152-.928-.736-1.392-1.728-1.392-2.976s.592-2.704 1.776-4.368c1.184-1.664 3.184-3.392 6-5.184.64-.448 1.312-.848 2.016-1.2.736-.352 1.488-.72 2.256-1.104.192-.096.336-.144.432-.144.128 0 .192.048.192.144 0 .224-.224.464-.672.72-1.536.768-2.848 1.568-3.936 2.4a18.786 18.786 0 0 0-2.928 3.024 37.06 37.06 0 0 0-1.536 2.112 20.235 20.235 0 0 0-1.296 2.448c-.384.8-.576 1.52-.576 2.16 0 1.344.64 2.016 1.92 2.016.544 0 1.184-.16 1.92-.48.736-.288 1.536-.768 2.4-1.44 2.176-1.696 3.712-3.584 4.608-5.664.896-2.048 1.344-4.448 1.344-7.2 0-2.048-.192-4.32-.576-6.816a60.013 60.013 0 0 1-.576-7.344c-.16.992-.432 2.192-.816 3.6a29.842 29.842 0 0 1-1.296 3.936c-.512 1.248-1.088 2.32-1.728 3.216-.608.896-1.392 1.344-2.352 1.344-.672 0-1.248-.336-1.728-1.008-.448-.672-.672-1.696-.672-3.072 0-1.024.176-2.24.528-3.648a22.879 22.879 0 0 1 1.44-4.08c.608-1.344 1.28-2.448 2.016-3.312.768-.896 1.536-1.344 2.304-1.344.544 0 .928.224 1.152.672.256.416.384.848.384 1.296 0 .352-.064.656-.192.912s-.32.384-.576.384c-.256-.032-.448-.144-.576-.336a11.731 11.731 0 0 0-.288-.624c-.096-.224-.272-.336-.528-.336-.512 0-1.008.336-1.488 1.008-.448.64-.864 1.488-1.248 2.544a24.302 24.302 0 0 0-.864 3.264 19.39 19.39 0 0 0-.288 3.168c0 .896.096 1.632.288 2.208.224.576.56.88 1.008.912.544.032 1.072-.32 1.584-1.056s.976-1.68 1.392-2.832a30.397 30.397 0 0 0 1.152-3.648c.352-1.312.64-2.528.864-3.648.256-1.152.432-2.048.528-2.688.256-1.696.496-2.768.72-3.216.224-.48.464-.72.72-.72.224 0 .416.208.576.624.192.416.288.8.288 1.152 0 .256-.016.432-.048.528a36.153 36.153 0 0 0-.576 6.48c0 .928.032 1.856.096 2.784.064.896.144 1.792.24 2.688a50.58 50.58 0 0 1 .288 5.184c0 3.264-.336 6.016-1.008 8.256-.64 2.272-1.488 4.096-2.544 5.472-1.056 1.408-2.192 2.416-3.408 3.024-1.184.64-2.336.96-3.456.96Z" fill="#000"/></svg>